<svg xmlns="http://www.w3.org/2000/svg" version="1.1" xmlns:xlink="http://www.w3.org/1999/xlink" xmlns:svgjs="http://svgjs.dev/svgjs" width="1500" height="325" viewBox="0 0 1500 325"><g transform="matrix(1,0,0,1,-0.9090909090909918,-0.6553085123182711)"><svg viewBox="0 0 396 86" data-background-color="#ffffff" preserveAspectRatio="xMidYMid meet" height="325" width="1500" xmlns="http://www.w3.org/2000/svg" xmlns:xlink="http://www.w3.org/1999/xlink"><g id="tight-bounds" transform="matrix(1,0,0,1,0.2400000000000091,0.17340471402883395)"><svg viewBox="0 0 395.52 85.65319057194232" height="85.65319057194232" width="395.52"><g><svg viewBox="0 0 517.3610245949644 112.03889167204647" height="85.65319057194232" width="395.52"><g transform="matrix(1,0,0,1,121.8410245949645,15.484390961910911)"><svg viewBox="0 0 395.52 81.07010974822465" height="81.07010974822465" width="395.52"><g id="textblocktransform"><svg viewBox="0 0 395.52 81.07010974822465" height="81.07010974822465" width="395.52" id="textblock"><g><svg viewBox="0 0 395.52 81.07010974822465" height="81.07010974822465" width="395.52"><g transform="matrix(1,0,0,1,0,0)"><svg width="395.52" viewBox="4 -36.01 226.89 46.51" height="81.07010974822465" data-palette-color="#2e30ff"><path d="M26.49-14.99L9.5-14.99Q8.47-14.99 7.56-15.39 6.64-15.8 5.96-16.47 5.27-17.14 4.88-18.05 4.49-18.97 4.49-20L4.49-20 4.49-30Q4.49-31.03 4.88-31.95 5.27-32.86 5.96-33.53 6.64-34.2 7.56-34.61 8.47-35.01 9.5-35.01L9.5-35.01 26.49-35.01Q27.51-35.01 28.43-34.61 29.35-34.2 30.03-33.53 30.71-32.86 31.1-31.95 31.49-31.03 31.49-30L31.49-30 31.49-25.49 26.49-25.49 26.49-30 9.5-30 9.5-20 26.49-20Q27.51-20 28.43-19.6 29.35-19.21 30.03-18.53 30.71-17.85 31.1-16.93 31.49-16.02 31.49-14.99L31.49-14.99 31.49-5Q31.49-3.98 31.1-3.06 30.71-2.15 30.03-1.46 29.35-0.78 28.43-0.39 27.51 0 26.49 0L26.49 0 9.01 0Q7.98 0 7.07-0.39 6.15-0.78 5.47-1.46 4.79-2.15 4.39-3.06 4-3.98 4-5L4-5 4-9.5 9.01-9.5 9.01-5 26.49-5 26.49-14.99ZM63.01-21.19L63.01 0 58.2 0 58.2-21.19 44.8-21.19 44.8 0 40.01 0 40.01-36.01 44.8-36.01 44.8-21.41Q44.85-22.36 45.24-23.21 45.63-24.05 46.27-24.67 46.92-25.29 47.78-25.65 48.63-26 49.61-26L49.61-26 58.2-26Q59.2-26 60.08-25.62 60.96-25.24 61.61-24.6 62.25-23.95 62.63-23.07 63.01-22.19 63.01-21.19L63.01-21.19ZM93.5-21.19L93.5-4.81Q93.5-3.81 93.12-2.93 92.74-2.05 92.1-1.4 91.45-0.76 90.58-0.38 89.72 0 88.72 0L88.72 0 75.8 0Q74.82 0 73.95-0.38 73.07-0.76 72.42-1.4 71.77-2.05 71.39-2.93 71.02-3.81 71.02-4.81L71.02-4.81 71.02-21.19Q71.02-22.19 71.39-23.07 71.77-23.95 72.42-24.6 73.07-25.24 73.95-25.62 74.82-26 75.8-26L75.8-26 88.72-26Q89.72-26 90.58-25.62 91.45-25.24 92.1-24.6 92.74-23.95 93.12-23.07 93.5-22.19 93.5-21.19L93.5-21.19ZM88.72-21.19L75.8-21.19 75.8-4.81 88.72-4.81 88.72-21.19ZM124.5-21.19L124.5-4.81Q124.5-3.81 124.13-2.93 123.75-2.05 123.1-1.4 122.45-0.76 121.57-0.38 120.7 0 119.69 0L119.69 0 106.29 0 106.29 10.5 101.51 10.5 101.51-26 106.29-26 106.29-21.61Q106.36-22.53 106.78-23.33 107.19-24.12 107.83-24.72 108.46-25.32 109.31-25.66 110.15-26 111.1-26L111.1-26 119.69-26Q120.7-26 121.57-25.62 122.45-25.24 123.1-24.6 123.75-23.95 124.13-23.07 124.5-22.19 124.5-21.19L124.5-21.19ZM106.29-4.81L119.69-4.81 119.69-21.19 106.29-21.19 106.29-4.81ZM133 0L133-35.01 158.51-35.01 158.51-30 138-30 138-20 155.51-20 155.51-14.99 138-14.99 138 0 133 0ZM165-36.01L169.79-36.01 169.79 0 165 0 165-36.01ZM199.79-21.19L199.79-10.55 182.58-10.55 182.58-4.81 199.79-4.81 199.79 0 182.58 0Q181.6 0 180.72-0.38 179.84-0.76 179.2-1.4 178.55-2.05 178.17-2.93 177.79-3.81 177.79-4.81L177.79-4.81 177.79-21.19Q177.79-22.19 178.17-23.07 178.55-23.95 179.2-24.6 179.84-25.24 180.72-25.62 181.6-26 182.58-26L182.58-26 194.98-26Q195.98-26 196.86-25.62 197.74-25.24 198.39-24.6 199.03-23.95 199.41-23.07 199.79-22.19 199.79-21.19L199.79-21.19ZM194.98-21.19L182.58-21.19 182.58-15.36 194.98-15.36 194.98-21.19ZM224.64-26L230.45-26 221-13.31 230.89 0 225.08 0 218.1-9.4 211.09 0 205.28 0 215.19-13.31 205.74-26 211.53-26 218.1-17.21 224.64-26Z" opacity="1" transform="matrix(1,0,0,1,0,0)" fill="#2e30ff" class="wordmark-text-0" data-fill-palette-color="primary" id="text-0"></path></svg></g></svg></g></svg></g></svg></g><g><svg viewBox="0 0 102.7023173660426 112.03889167204647" height="112.03889167204647" width="102.7023173660426"><g><svg xmlns="http://www.w3.org/2000/svg" xmlns:xlink="http://www.w3.org/1999/xlink" version="1.1" x="0" y="0" viewBox="4 0 88 96" enable-background="new 0 0 96 96" xml:space="preserve" height="112.03889167204647" width="102.7023173660426" class="icon-icon-0" data-fill-palette-color="accent" id="icon-0"><path d="M85.688 28.94C85.329 28.356 84.688 28 83.993 28H63.993V20H73.993C75.097 20 75.993 19.1 75.993 18V2C75.993 0.9 75.097 0 73.993 0H21.993C20.889 0 19.993 0.9 19.993 2V18C19.993 19.1 20.889 20 21.993 20H31.993V28H11.873C11.181 28 10.537 28.36 10.173 28.948L4 38.952V48C4 51.252 5.832 54 8 54 11.308 54 14 51.309 14 48 14 46.9 14.896 46 16 46S18 46.9 18 48C18 51.309 20.692 54 24 54S30 51.309 30 48C30 46.9 30.896 46 32 46S34 46.9 34 48C34 51.309 36.692 54 40 54S46 51.309 46 48C46 46.9 46.896 46 48 46S50 46.9 50 48C50 51.309 52.691 54 56 54S62 51.309 62 48C62 46.9 62.9 46 64 46S66 46.9 66 48C66 51.309 68.691 54 72 54S78 51.309 78 48C78 46.9 78.9 46 80 46S82 46.9 82 48C82 50.764 83.309 54 87 54S92 50.764 92 48V39.032zM35.996 28V20H59.996V28z" fill="#fe5200" data-fill-palette-color="accent"></path><path d="M19.996 84H75.996V56.78C74.764 57.368 73.424 57.759 71.996 57.759 68.732 57.759 65.824 56.304 63.996 53.871 62.168 56.295 59.264 57.938 55.996 57.938A9.97 9.97 0 0 1 47.996 53.962C46.168 56.395 43.264 57.983 39.996 57.983S33.824 56.415 31.996 53.983A10 10 0 0 1 23.996 57.991C22.568 57.991 21.228 57.647 19.996 57.106z" fill="#fe5200" data-fill-palette-color="accent"></path><path d="M79.992 54.044V86C79.992 87.1 79.096 88 77.992 88H17.992C16.888 88 15.992 87.1 15.992 86V53.992C14.164 56.42 11.26 58 7.992 58V94C7.992 95.1 8.888 96 9.992 96H85.992C87.096 96 87.992 95.1 87.992 94V58.312C85.016 58.313 81.656 56.275 79.992 54.044" fill="#fe5200" data-fill-palette-color="accent"></path></svg></g></svg></g></svg></g><defs></defs></svg><rect width="395.52" height="85.65319057194232" fill="none" stroke="none" visibility="hidden"></rect></g></svg></g></svg>