<?xml version="1.0" standalone="no"?>
<!DOCTYPE svg PUBLIC "-//W3C//DTD SVG 20010904//EN"
 "http://www.w3.org/TR/2001/REC-SVG-20010904/DTD/svg10.dtd">
<svg version="1.0" xmlns="http://www.w3.org/2000/svg"
 width="1500.000000pt" height="1500.000000pt" viewBox="0 0 1500.000000 1500.000000"
 preserveAspectRatio="xMidYMid meet">
<metadata>
Created by potrace 1.14, written by Peter Selinger 2001-2017
</metadata>
<g transform="translate(0.000000,1500.000000) scale(0.100000,-0.100000)"
fill="#000000" stroke="none">
<path d="M2882 8568 c-17 -17 -17 -399 0 -416 8 -8 53 -12 135 -12 l123 0 0
-95 0 -95 -241 -2 -242 -3 -74 -120 -75 -120 4 -130 c3 -117 5 -133 26 -162
29 -40 62 -50 110 -31 40 15 82 68 82 102 0 30 27 66 50 66 23 0 50 -36 50
-66 0 -38 43 -88 88 -104 37 -13 47 -13 84 0 45 16 88 66 88 104 0 29 27 66
49 66 25 0 51 -32 51 -62 0 -41 41 -91 88 -108 37 -13 47 -13 84 0 45 16 88
66 88 104 0 29 27 66 49 66 25 0 51 -32 51 -62 0 -41 41 -91 88 -108 37 -13
47 -13 84 0 46 16 88 67 88 105 0 13 8 33 18 45 25 31 69 21 77 -18 4 -15 8
-38 11 -51 13 -64 103 -106 172 -79 40 15 82 68 82 102 0 12 7 32 16 44 30 44
84 17 84 -42 0 -82 84 -137 156 -103 52 25 64 64 64 204 l0 118 -76 123 -76
122 -239 0 -239 0 0 95 0 95 123 0 c82 0 127 4 135 12 17 17 17 399 0 416 -17
17 -1219 17 -1236 0z m888 -523 l0 -95 -270 0 -270 0 0 95 0 95 270 0 270 0 0
-95z"/>
<path d="M6070 7685 l0 -605 80 0 80 0 0 355 0 355 225 0 225 0 0 -355 0 -355
86 0 85 0 -3 378 c-3 368 -4 378 -25 412 -12 20 -40 46 -62 58 -39 22 -49 23
-233 20 -184 -3 -195 -4 -226 -26 -18 -13 -41 -40 -52 -60 l-19 -37 -1 233 0
232 -80 0 -80 0 0 -605z"/>
<path d="M10277 8284 c-4 -4 -7 -277 -7 -606 l0 -598 85 0 85 0 -2 603 -3 602
-75 3 c-42 1 -79 0 -83 -4z"/>
<path d="M4959 8227 c-18 -12 -44 -38 -57 -57 -23 -34 -23 -38 -20 -260 3
-217 4 -226 26 -258 13 -18 41 -41 62 -52 37 -19 60 -20 345 -20 l305 0 -2
-167 -3 -168 -292 -3 -293 -2 0 80 0 80 -85 0 -85 0 0 -97 c0 -112 19 -160 80
-201 l34 -23 356 3 c349 3 356 3 386 25 58 42 69 79 72 263 6 262 -8 312 -98
358 -43 21 -53 22 -342 22 l-298 0 0 165 0 165 285 0 285 0 0 -75 0 -76 83 3
82 3 3 65 c7 124 -26 198 -105 239 -15 7 -129 11 -356 11 -331 0 -334 0 -368
-23z"/>
<path d="M9200 7665 l0 -585 85 0 85 0 0 250 0 250 295 0 295 0 0 85 0 85
-295 0 -295 0 0 165 0 165 343 2 342 3 3 83 3 82 -431 0 -430 0 0 -585z"/>
<path d="M7198 7930 c-20 -11 -47 -36 -60 -57 -23 -38 -23 -40 -23 -358 0
-305 1 -322 21 -355 11 -19 35 -45 54 -57 32 -22 40 -23 300 -23 260 0 268 1
300 23 18 12 43 35 54 50 20 28 21 39 21 362 0 321 -1 335 -21 361 -11 15 -33
37 -48 48 -26 20 -42 21 -294 23 -248 2 -270 1 -304 -17z m512 -415 l0 -275
-215 0 -215 0 0 275 0 275 215 0 215 0 0 -275z"/>
<path d="M8140 7335 l0 -615 80 0 80 0 0 180 0 179 258 3 c374 4 352 -22 352
436 0 314 0 320 -22 352 -49 71 -60 75 -256 78 -97 2 -191 1 -209 -3 -40 -7
-91 -49 -109 -90 -13 -29 -13 -28 -14 33 l0 62 -80 0 -80 0 0 -615z m610 180
l0 -275 -225 0 -225 0 0 275 0 275 225 0 225 0 0 -275z"/>
<path d="M10788 7930 c-20 -11 -47 -36 -60 -57 -23 -38 -23 -40 -23 -358 0
-305 1 -322 21 -355 11 -19 35 -45 54 -57 32 -23 38 -23 346 -23 l314 0 0 80
0 80 -285 0 -285 0 0 95 0 95 285 0 285 0 0 201 c0 186 -2 204 -21 239 -12 21
-38 47 -59 59 -36 20 -51 21 -286 21 -226 -1 -252 -3 -286 -20z m492 -240 l0
-100 -205 0 -205 0 0 100 0 100 205 0 205 0 0 -100z"/>
<path d="M11650 7945 c0 -3 67 -94 148 -203 82 -108 151 -202 155 -209 4 -6
-62 -104 -158 -232 l-165 -221 99 0 99 0 116 155 116 156 116 -156 115 -155
95 0 c52 0 94 2 94 5 0 3 -72 102 -160 221 -97 130 -158 220 -153 227 4 7 71
98 148 202 78 105 144 196 149 203 5 9 -15 12 -91 11 l-98 0 -105 -144 c-58
-80 -107 -144 -110 -144 -3 0 -53 65 -113 144 l-107 145 -95 0 c-52 0 -95 -2
-95 -5z"/>
<path d="M3822 7333 c-93 -71 -194 -70 -290 3 l-33 26 -22 -20 c-35 -33 -108
-62 -157 -62 -49 0 -122 29 -157 62 l-23 21 -22 -21 c-55 -51 -160 -76 -222
-52 l-26 10 0 -300 0 -300 630 0 630 0 0 301 0 301 -32 -8 c-78 -18 -155 0
-208 49 l-25 23 -43 -33z"/>
<path d="M2760 7345 c-19 -23 -108 -65 -137 -65 l-23 0 0 -413 c0 -308 3 -416
12 -425 17 -17 1759 -17 1776 0 9 9 12 116 12 419 l0 406 -46 13 c-26 8 -67
28 -90 47 l-44 33 0 -364 c0 -318 -2 -367 -16 -380 -14 -14 -91 -16 -703 -16
-652 0 -689 1 -704 18 -15 16 -17 61 -19 382 -3 324 -5 361 -18 345z"/>
</g>
</svg>
